<?xml version="1.0" encoding="utf-8" standalone="no"?>
<!DOCTYPE svg PUBLIC "-//W3C//DTD SVG 1.1//EN"
  "http://www.w3.org/Graphics/SVG/1.1/DTD/svg11.dtd">
<svg xmlns:xlink="http://www.w3.org/1999/xlink" width="460.8pt" height="345.6pt" viewBox="0 0 460.8 345.6" xmlns="http://www.w3.org/2000/svg" version="1.1">
 <metadata>
  <rdf:RDF xmlns:dc="http://purl.org/dc/elements/1.1/" xmlns:cc="http://creativecommons.org/ns#" xmlns:rdf="http://www.w3.org/1999/02/22-rdf-syntax-ns#">
   <cc:Work>
    <dc:type rdf:resource="http://purl.org/dc/dcmitype/StillImage"/>
    <dc:date>2025-12-22T08:22:07.130653</dc:date>
    <dc:format>image/svg+xml</dc:format>
    <dc:creator>
     <cc:Agent>
      <dc:title>Matplotlib v3.10.8, https://matplotlib.org/</dc:title>
     </cc:Agent>
    </dc:creator>
   </cc:Work>
  </rdf:RDF>
 </metadata>
 <defs>
  <style type="text/css">*{stroke-linejoin: round; stroke-linecap: butt}</style>
 </defs>
 <g id="figure_1">
  <g id="patch_1">
   <path d="M 0 345.6 
L 460.8 345.6 
L 460.8 0 
L 0 0 
z
" style="fill: #ffffff"/>
  </g>
  <g id="axes_1">
   <g id="patch_2">
    <path d="M 34.16 291.28 
L 453.192 291.28 
L 453.192 3 
L 34.16 3 
z
" style="fill: #ffffff"/>
   </g>
   <g id="matplotlib.axis_1">
    <g id="xtick_1">
     <g id="line2d_1">
      <path d="M 115.817014 291.28 
L 115.817014 3 
" clip-path="url(#p0e3c2578ca)" style="fill: none; stroke: #b0b0b0; stroke-width: 0.8; stroke-linecap: square"/>
     </g>
     <g id="line2d_2">
      <defs>
       <path id="m3a7fcb4c47" d="M 0 0 
L 0 3.5 
" style="stroke: #000000; stroke-width: 0.8"/>
      </defs>
      <g>
       <use xlink:href="#m3a7fcb4c47" x="115.817014" y="291.28" style="stroke: #000000; stroke-width: 0.8"/>
      </g>
     </g>
     <g id="text_1">
      <!-- -2 -->
      <g transform="translate(105.846702 313.476875) scale(0.2 -0.2)">
       <defs>
        <path id="DejaVuSans-2d" d="M 313 2009 
L 1997 2009 
L 1997 1497 
L 313 1497 
L 313 2009 
z
" transform="scale(0.015625)"/>
        <path id="DejaVuSans-32" d="M 1228 531 
L 3431 531 
L 3431 0 
L 469 0 
L 469 531 
Q 828 903 1448 1529 
Q 2069 2156 2228 2338 
Q 2531 2678 2651 2914 
Q 2772 3150 2772 3378 
Q 2772 3750 2511 3984 
Q 2250 4219 1831 4219 
Q 1534 4219 1204 4116 
Q 875 4013 500 3803 
L 500 4441 
Q 881 4594 1212 4672 
Q 1544 4750 1819 4750 
Q 2544 4750 2975 4387 
Q 3406 4025 3406 3419 
Q 3406 3131 3298 2873 
Q 3191 2616 2906 2266 
Q 2828 2175 2409 1742 
Q 1991 1309 1228 531 
z
" transform="scale(0.015625)"/>
       </defs>
       <use xlink:href="#DejaVuSans-2d"/>
       <use xlink:href="#DejaVuSans-32" transform="translate(36.083984 0)"/>
      </g>
     </g>
    </g>
    <g id="xtick_2">
     <g id="line2d_3">
      <path d="M 243.676 291.28 
L 243.676 3 
" clip-path="url(#p0e3c2578ca)" style="fill: none; stroke: #b0b0b0; stroke-width: 0.8; stroke-linecap: square"/>
     </g>
     <g id="line2d_4">
      <g>
       <use xlink:href="#m3a7fcb4c47" x="243.676" y="291.28" style="stroke: #000000; stroke-width: 0.8"/>
      </g>
     </g>
     <g id="text_2">
      <!-- 0 -->
      <g transform="translate(237.3135 313.476875) scale(0.2 -0.2)">
       <defs>
        <path id="DejaVuSans-30" d="M 2034 4250 
Q 1547 4250 1301 3770 
Q 1056 3291 1056 2328 
Q 1056 1369 1301 889 
Q 1547 409 2034 409 
Q 2525 409 2770 889 
Q 3016 1369 3016 2328 
Q 3016 3291 2770 3770 
Q 2525 4250 2034 4250 
z
M 2034 4750 
Q 2819 4750 3233 4129 
Q 3647 3509 3647 2328 
Q 3647 1150 3233 529 
Q 2819 -91 2034 -91 
Q 1250 -91 836 529 
Q 422 1150 422 2328 
Q 422 3509 836 4129 
Q 1250 4750 2034 4750 
z
" transform="scale(0.015625)"/>
       </defs>
       <use xlink:href="#DejaVuSans-30"/>
      </g>
     </g>
    </g>
    <g id="xtick_3">
     <g id="line2d_5">
      <path d="M 371.534986 291.28 
L 371.534986 3 
" clip-path="url(#p0e3c2578ca)" style="fill: none; stroke: #b0b0b0; stroke-width: 0.8; stroke-linecap: square"/>
     </g>
     <g id="line2d_6">
      <g>
       <use xlink:href="#m3a7fcb4c47" x="371.534986" y="291.28" style="stroke: #000000; stroke-width: 0.8"/>
      </g>
     </g>
     <g id="text_3">
      <!-- 2 -->
      <g transform="translate(365.172486 313.476875) scale(0.2 -0.2)">
       <use xlink:href="#DejaVuSans-32"/>
      </g>
     </g>
    </g>
    <g id="text_4">
     <!-- log10 of FEvals ratio -->
     <g transform="translate(141.371312 336.833125) scale(0.2 -0.2)">
      <defs>
       <path id="DejaVuSans-6c" d="M 603 4863 
L 1178 4863 
L 1178 0 
L 603 0 
L 603 4863 
z
" transform="scale(0.015625)"/>
       <path id="DejaVuSans-6f" d="M 1959 3097 
Q 1497 3097 1228 2736 
Q 959 2375 959 1747 
Q 959 1119 1226 758 
Q 1494 397 1959 397 
Q 2419 397 2687 759 
Q 2956 1122 2956 1747 
Q 2956 2369 2687 2733 
Q 2419 3097 1959 3097 
z
M 1959 3584 
Q 2709 3584 3137 3096 
Q 3566 2609 3566 1747 
Q 3566 888 3137 398 
Q 2709 -91 1959 -91 
Q 1206 -91 779 398 
Q 353 888 353 1747 
Q 353 2609 779 3096 
Q 1206 3584 1959 3584 
z
" transform="scale(0.015625)"/>
       <path id="DejaVuSans-67" d="M 2906 1791 
Q 2906 2416 2648 2759 
Q 2391 3103 1925 3103 
Q 1463 3103 1205 2759 
Q 947 2416 947 1791 
Q 947 1169 1205 825 
Q 1463 481 1925 481 
Q 2391 481 2648 825 
Q 2906 1169 2906 1791 
z
M 3481 434 
Q 3481 -459 3084 -895 
Q 2688 -1331 1869 -1331 
Q 1566 -1331 1297 -1286 
Q 1028 -1241 775 -1147 
L 775 -588 
Q 1028 -725 1275 -790 
Q 1522 -856 1778 -856 
Q 2344 -856 2625 -561 
Q 2906 -266 2906 331 
L 2906 616 
Q 2728 306 2450 153 
Q 2172 0 1784 0 
Q 1141 0 747 490 
Q 353 981 353 1791 
Q 353 2603 747 3093 
Q 1141 3584 1784 3584 
Q 2172 3584 2450 3431 
Q 2728 3278 2906 2969 
L 2906 3500 
L 3481 3500 
L 3481 434 
z
" transform="scale(0.015625)"/>
       <path id="DejaVuSans-31" d="M 794 531 
L 1825 531 
L 1825 4091 
L 703 3866 
L 703 4441 
L 1819 4666 
L 2450 4666 
L 2450 531 
L 3481 531 
L 3481 0 
L 794 0 
L 794 531 
z
" transform="scale(0.015625)"/>
       <path id="DejaVuSans-20" transform="scale(0.015625)"/>
       <path id="DejaVuSans-66" d="M 2375 4863 
L 2375 4384 
L 1825 4384 
Q 1516 4384 1395 4259 
Q 1275 4134 1275 3809 
L 1275 3500 
L 2222 3500 
L 2222 3053 
L 1275 3053 
L 1275 0 
L 697 0 
L 697 3053 
L 147 3053 
L 147 3500 
L 697 3500 
L 697 3744 
Q 697 4328 969 4595 
Q 1241 4863 1831 4863 
L 2375 4863 
z
" transform="scale(0.015625)"/>
       <path id="DejaVuSans-46" d="M 628 4666 
L 3309 4666 
L 3309 4134 
L 1259 4134 
L 1259 2759 
L 3109 2759 
L 3109 2228 
L 1259 2228 
L 1259 0 
L 628 0 
L 628 4666 
z
" transform="scale(0.015625)"/>
       <path id="DejaVuSans-45" d="M 628 4666 
L 3578 4666 
L 3578 4134 
L 1259 4134 
L 1259 2753 
L 3481 2753 
L 3481 2222 
L 1259 2222 
L 1259 531 
L 3634 531 
L 3634 0 
L 628 0 
L 628 4666 
z
" transform="scale(0.015625)"/>
       <path id="DejaVuSans-76" d="M 191 3500 
L 800 3500 
L 1894 563 
L 2988 3500 
L 3597 3500 
L 2284 0 
L 1503 0 
L 191 3500 
z
" transform="scale(0.015625)"/>
       <path id="DejaVuSans-61" d="M 2194 1759 
Q 1497 1759 1228 1600 
Q 959 1441 959 1056 
Q 959 750 1161 570 
Q 1363 391 1709 391 
Q 2188 391 2477 730 
Q 2766 1069 2766 1631 
L 2766 1759 
L 2194 1759 
z
M 3341 1997 
L 3341 0 
L 2766 0 
L 2766 531 
Q 2569 213 2275 61 
Q 1981 -91 1556 -91 
Q 1019 -91 701 211 
Q 384 513 384 1019 
Q 384 1609 779 1909 
Q 1175 2209 1959 2209 
L 2766 2209 
L 2766 2266 
Q 2766 2663 2505 2880 
Q 2244 3097 1772 3097 
Q 1472 3097 1187 3025 
Q 903 2953 641 2809 
L 641 3341 
Q 956 3463 1253 3523 
Q 1550 3584 1831 3584 
Q 2591 3584 2966 3190 
Q 3341 2797 3341 1997 
z
" transform="scale(0.015625)"/>
       <path id="DejaVuSans-73" d="M 2834 3397 
L 2834 2853 
Q 2591 2978 2328 3040 
Q 2066 3103 1784 3103 
Q 1356 3103 1142 2972 
Q 928 2841 928 2578 
Q 928 2378 1081 2264 
Q 1234 2150 1697 2047 
L 1894 2003 
Q 2506 1872 2764 1633 
Q 3022 1394 3022 966 
Q 3022 478 2636 193 
Q 2250 -91 1575 -91 
Q 1294 -91 989 -36 
Q 684 19 347 128 
L 347 722 
Q 666 556 975 473 
Q 1284 391 1588 391 
Q 1994 391 2212 530 
Q 2431 669 2431 922 
Q 2431 1156 2273 1281 
Q 2116 1406 1581 1522 
L 1381 1569 
Q 847 1681 609 1914 
Q 372 2147 372 2553 
Q 372 3047 722 3315 
Q 1072 3584 1716 3584 
Q 2034 3584 2315 3537 
Q 2597 3491 2834 3397 
z
" transform="scale(0.015625)"/>
       <path id="DejaVuSans-72" d="M 2631 2963 
Q 2534 3019 2420 3045 
Q 2306 3072 2169 3072 
Q 1681 3072 1420 2755 
Q 1159 2438 1159 1844 
L 1159 0 
L 581 0 
L 581 3500 
L 1159 3500 
L 1159 2956 
Q 1341 3275 1631 3429 
Q 1922 3584 2338 3584 
Q 2397 3584 2469 3576 
Q 2541 3569 2628 3553 
L 2631 2963 
z
" transform="scale(0.015625)"/>
       <path id="DejaVuSans-74" d="M 1172 4494 
L 1172 3500 
L 2356 3500 
L 2356 3053 
L 1172 3053 
L 1172 1153 
Q 1172 725 1289 603 
Q 1406 481 1766 481 
L 2356 481 
L 2356 0 
L 1766 0 
Q 1100 0 847 248 
Q 594 497 594 1153 
L 594 3053 
L 172 3053 
L 172 3500 
L 594 3500 
L 594 4494 
L 1172 4494 
z
" transform="scale(0.015625)"/>
       <path id="DejaVuSans-69" d="M 603 3500 
L 1178 3500 
L 1178 0 
L 603 0 
L 603 3500 
z
M 603 4863 
L 1178 4863 
L 1178 4134 
L 603 4134 
L 603 4863 
z
" transform="scale(0.015625)"/>
      </defs>
      <use xlink:href="#DejaVuSans-6c"/>
      <use xlink:href="#DejaVuSans-6f" transform="translate(27.783203 0)"/>
      <use xlink:href="#DejaVuSans-67" transform="translate(88.964844 0)"/>
      <use xlink:href="#DejaVuSans-31" transform="translate(152.441406 0)"/>
      <use xlink:href="#DejaVuSans-30" transform="translate(216.064453 0)"/>
      <use xlink:href="#DejaVuSans-20" transform="translate(279.6875 0)"/>
      <use xlink:href="#DejaVuSans-6f" transform="translate(311.474609 0)"/>
      <use xlink:href="#DejaVuSans-66" transform="translate(372.65625 0)"/>
      <use xlink:href="#DejaVuSans-20" transform="translate(407.861328 0)"/>
      <use xlink:href="#DejaVuSans-46" transform="translate(439.648438 0)"/>
      <use xlink:href="#DejaVuSans-45" transform="translate(497.167969 0)"/>
      <use xlink:href="#DejaVuSans-76" transform="translate(560.351562 0)"/>
      <use xlink:href="#DejaVuSans-61" transform="translate(619.53125 0)"/>
      <use xlink:href="#DejaVuSans-6c" transform="translate(680.810547 0)"/>
      <use xlink:href="#DejaVuSans-73" transform="translate(708.59375 0)"/>
      <use xlink:href="#DejaVuSans-20" transform="translate(760.693359 0)"/>
      <use xlink:href="#DejaVuSans-72" transform="translate(792.480469 0)"/>
      <use xlink:href="#DejaVuSans-61" transform="translate(833.59375 0)"/>
      <use xlink:href="#DejaVuSans-74" transform="translate(894.873047 0)"/>
      <use xlink:href="#DejaVuSans-69" transform="translate(934.082031 0)"/>
      <use xlink:href="#DejaVuSans-6f" transform="translate(961.865234 0)"/>
     </g>
    </g>
   </g>
   <g id="matplotlib.axis_2">
    <g id="ytick_1">
     <g id="line2d_7">
      <path d="M 34.16 288.453725 
L 453.192 288.453725 
" clip-path="url(#p0e3c2578ca)" style="fill: none; stroke: #b0b0b0; stroke-width: 0.8; stroke-linecap: square"/>
     </g>
     <g id="line2d_8">
      <defs>
       <path id="m2f56b222bb" d="M 0 0 
L -3.5 0 
" style="stroke: #000000; stroke-width: 0.8"/>
      </defs>
      <g>
       <use xlink:href="#m2f56b222bb" x="34.16" y="288.453725" style="stroke: #000000; stroke-width: 0.8"/>
      </g>
     </g>
    </g>
    <g id="ytick_2">
     <g id="line2d_9">
      <path d="M 34.16 217.796863 
L 453.192 217.796863 
" clip-path="url(#p0e3c2578ca)" style="fill: none; stroke: #b0b0b0; stroke-width: 0.8; stroke-linecap: square"/>
     </g>
     <g id="line2d_10">
      <g>
       <use xlink:href="#m2f56b222bb" x="34.16" y="217.796863" style="stroke: #000000; stroke-width: 0.8"/>
      </g>
     </g>
    </g>
    <g id="ytick_3">
     <g id="line2d_11">
      <path d="M 34.16 147.14 
L 453.192 147.14 
" clip-path="url(#p0e3c2578ca)" style="fill: none; stroke: #b0b0b0; stroke-width: 0.8; stroke-linecap: square"/>
     </g>
     <g id="line2d_12">
      <g>
       <use xlink:href="#m2f56b222bb" x="34.16" y="147.14" style="stroke: #000000; stroke-width: 0.8"/>
      </g>
     </g>
    </g>
    <g id="ytick_4">
     <g id="line2d_13">
      <path d="M 34.16 76.483137 
L 453.192 76.483137 
" clip-path="url(#p0e3c2578ca)" style="fill: none; stroke: #b0b0b0; stroke-width: 0.8; stroke-linecap: square"/>
     </g>
     <g id="line2d_14">
      <g>
       <use xlink:href="#m2f56b222bb" x="34.16" y="76.483137" style="stroke: #000000; stroke-width: 0.8"/>
      </g>
     </g>
    </g>
    <g id="ytick_5">
     <g id="line2d_15">
      <path d="M 34.16 5.826275 
L 453.192 5.826275 
" clip-path="url(#p0e3c2578ca)" style="fill: none; stroke: #b0b0b0; stroke-width: 0.8; stroke-linecap: square"/>
     </g>
     <g id="line2d_16">
      <g>
       <use xlink:href="#m2f56b222bb" x="34.16" y="5.826275" style="stroke: #000000; stroke-width: 0.8"/>
      </g>
     </g>
    </g>
    <g id="text_5">
     <!-- proportion of trials -->
     <g transform="translate(19.000625 240.14625) rotate(-90) scale(0.2 -0.2)">
      <defs>
       <path id="DejaVuSans-70" d="M 1159 525 
L 1159 -1331 
L 581 -1331 
L 581 3500 
L 1159 3500 
L 1159 2969 
Q 1341 3281 1617 3432 
Q 1894 3584 2278 3584 
Q 2916 3584 3314 3078 
Q 3713 2572 3713 1747 
Q 3713 922 3314 415 
Q 2916 -91 2278 -91 
Q 1894 -91 1617 61 
Q 1341 213 1159 525 
z
M 3116 1747 
Q 3116 2381 2855 2742 
Q 2594 3103 2138 3103 
Q 1681 3103 1420 2742 
Q 1159 2381 1159 1747 
Q 1159 1113 1420 752 
Q 1681 391 2138 391 
Q 2594 391 2855 752 
Q 3116 1113 3116 1747 
z
" transform="scale(0.015625)"/>
       <path id="DejaVuSans-6e" d="M 3513 2113 
L 3513 0 
L 2938 0 
L 2938 2094 
Q 2938 2591 2744 2837 
Q 2550 3084 2163 3084 
Q 1697 3084 1428 2787 
Q 1159 2491 1159 1978 
L 1159 0 
L 581 0 
L 581 3500 
L 1159 3500 
L 1159 2956 
Q 1366 3272 1645 3428 
Q 1925 3584 2291 3584 
Q 2894 3584 3203 3211 
Q 3513 2838 3513 2113 
z
" transform="scale(0.015625)"/>
      </defs>
      <use xlink:href="#DejaVuSans-70"/>
      <use xlink:href="#DejaVuSans-72" transform="translate(63.476562 0)"/>
      <use xlink:href="#DejaVuSans-6f" transform="translate(102.339844 0)"/>
      <use xlink:href="#DejaVuSans-70" transform="translate(163.521484 0)"/>
      <use xlink:href="#DejaVuSans-6f" transform="translate(226.998047 0)"/>
      <use xlink:href="#DejaVuSans-72" transform="translate(288.179688 0)"/>
      <use xlink:href="#DejaVuSans-74" transform="translate(329.292969 0)"/>
      <use xlink:href="#DejaVuSans-69" transform="translate(368.501953 0)"/>
      <use xlink:href="#DejaVuSans-6f" transform="translate(396.285156 0)"/>
      <use xlink:href="#DejaVuSans-6e" transform="translate(457.466797 0)"/>
      <use xlink:href="#DejaVuSans-20" transform="translate(520.845703 0)"/>
      <use xlink:href="#DejaVuSans-6f" transform="translate(552.632812 0)"/>
      <use xlink:href="#DejaVuSans-66" transform="translate(613.814453 0)"/>
      <use xlink:href="#DejaVuSans-20" transform="translate(649.019531 0)"/>
      <use xlink:href="#DejaVuSans-74" transform="translate(680.806641 0)"/>
      <use xlink:href="#DejaVuSans-72" transform="translate(720.015625 0)"/>
      <use xlink:href="#DejaVuSans-69" transform="translate(761.128906 0)"/>
      <use xlink:href="#DejaVuSans-61" transform="translate(788.912109 0)"/>
      <use xlink:href="#DejaVuSans-6c" transform="translate(850.191406 0)"/>
      <use xlink:href="#DejaVuSans-73" transform="translate(877.974609 0)"/>
     </g>
    </g>
   </g>
   <g id="line2d_17">
    <path d="M 34.16 130.589744 
L 123.436541 130.589744 
L 123.436541 128.043551 
L 124.554714 128.043551 
L 124.554714 125.497357 
L 131.668431 125.497357 
L 131.668431 125.327611 
L 134.785446 125.327611 
L 134.785446 125.157865 
L 146.598174 125.157865 
L 146.598174 124.988119 
L 155.439795 124.988119 
L 155.439795 122.441925 
L 162.170551 122.441925 
L 162.170551 122.272179 
L 165.014024 122.272179 
L 165.014024 122.102433 
L 165.287566 122.102433 
L 165.287566 121.932687 
L 170.404616 121.932687 
L 170.404616 119.386494 
L 177.100294 119.386494 
L 177.100294 119.216747 
L 179.746507 119.216747 
L 179.746507 118.877255 
L 181.170626 118.877255 
L 181.170626 118.707509 
L 185.941915 118.707509 
L 185.941915 116.161315 
L 195.516144 116.161315 
L 195.516144 115.991569 
L 196.082096 115.991569 
L 196.082096 115.821823 
L 196.720382 115.821823 
L 196.720382 115.482331 
L 197.498142 115.482331 
L 197.498142 115.312584 
L 197.945763 115.312584 
L 197.945763 115.142838 
L 198.584049 115.142838 
L 198.584049 114.803346 
L 198.991202 114.803346 
L 199.055845 114.124361 
L 199.361809 114.124361 
L 199.361809 113.954615 
L 199.566647 113.954615 
L 199.566647 113.784868 
L 199.694131 113.784868 
L 199.694131 113.445376 
L 200.381358 113.445376 
L 200.471892 112.936137 
L 201.019645 112.936137 
L 201.019645 112.596645 
L 201.358509 112.596645 
L 201.430314 112.257152 
L 201.491671 112.257152 
L 201.491671 112.087406 
L 201.756094 112.087406 
L 201.797405 111.747914 
L 202.018023 111.747914 
L 202.018023 111.578168 
L 202.271719 111.578168 
L 202.271719 111.408421 
L 202.540397 111.408421 
L 202.540397 111.238675 
L 203.222176 111.238675 
L 203.222176 111.068929 
L 203.355338 111.068929 
L 203.41606 110.55969 
L 203.619761 110.55969 
L 203.619761 110.389944 
L 203.86591 110.389944 
L 203.88169 110.050452 
L 204.332259 110.050452 
L 204.332259 109.880705 
L 204.465421 109.880705 
L 204.465421 109.710959 
L 204.707314 109.710959 
L 204.729844 109.371467 
L 204.864957 109.371467 
L 204.864957 109.201721 
L 204.982353 109.201721 
L 204.991773 108.862228 
L 205.18661 108.862228 
L 205.279727 108.352989 
L 205.657772 108.352989 
L 205.676495 108.013497 
L 205.790934 108.013497 
L 205.790934 107.843751 
L 206.055357 107.843751 
L 206.055357 107.674005 
L 206.317286 107.674005 
L 206.389809 107.334512 
L 206.728624 107.334512 
L 206.728624 107.164766 
L 206.84602 107.164766 
L 206.84602 106.99502 
L 207.446926 106.99502 
L 207.540162 106.655527 
L 207.715322 106.655527 
L 207.715322 106.485781 
L 207.838706 106.485781 
L 207.838706 106.316035 
L 207.956103 106.316035 
L 207.956103 106.146289 
L 208.650245 106.146289 
L 208.650245 105.976542 
L 209.164219 105.976542 
L 209.164219 105.806796 
L 209.281616 105.806796 
L 209.310593 105.467304 
L 209.975758 105.467304 
L 209.975758 105.297558 
L 210.420675 105.297558 
L 210.420675 105.127811 
L 211.672746 105.127811 
L 211.746188 104.788319 
L 211.917366 104.788319 
L 211.917366 104.618573 
L 213.605681 104.618573 
L 213.605681 104.448826 
L 214.88959 104.448826 
L 215.000426 104.109334 
L 215.034381 104.109334 
L 215.034381 103.939588 
L 216.875836 103.939588 
L 216.875836 103.769842 
L 217.488832 103.769842 
L 217.488832 103.600095 
L 218.049351 103.600095 
L 218.049351 103.430349 
L 218.235897 103.430349 
L 218.235897 102.921111 
L 219.320104 102.921111 
L 219.320104 102.751364 
L 219.904636 102.751364 
L 219.904636 102.581618 
L 220.605847 102.581618 
L 220.605847 102.411872 
L 221.587832 102.411872 
L 221.587832 102.242126 
L 222.437119 102.242126 
L 222.437119 102.072379 
L 223.021651 102.072379 
L 223.021651 101.902633 
L 223.985028 101.902633 
L 223.985028 101.732887 
L 224.32047 101.732887 
L 224.431305 100.205171 
L 224.702178 100.205171 
L 224.704846 99.865679 
L 224.933839 99.865679 
L 224.933839 99.695932 
L 225.399923 99.695932 
L 225.399923 99.526186 
L 225.882497 99.526186 
L 225.882497 99.35644 
L 226.847109 99.35644 
L 226.857671 99.016948 
L 227.010428 99.016948 
L 227.010428 98.677455 
L 227.151655 98.677455 
L 227.255183 98.337963 
L 227.48023 98.337963 
L 227.48023 98.168216 
L 227.659169 98.168216 
L 227.659169 97.99847 
L 227.865375 97.99847 
L 227.934116 97.658978 
L 228.121683 97.658978 
L 228.121683 97.489232 
L 228.441236 97.489232 
L 228.552072 97.149739 
L 228.594277 97.149739 
L 228.657673 96.810247 
L 228.821574 96.810247 
L 228.932409 96.301008 
L 228.995689 96.301008 
L 228.995689 96.131262 
L 229.152652 96.131262 
L 229.173927 95.791769 
L 229.288419 95.791769 
L 229.288419 95.622023 
L 229.514443 95.622023 
L 229.514443 95.452277 
L 229.744016 95.452277 
L 229.748334 95.112785 
L 230.127443 95.112785 
L 230.127443 94.773292 
L 230.806362 94.773292 
L 230.806362 94.603546 
L 230.951445 94.603546 
L 230.951445 94.4338 
L 231.065155 94.4338 
L 231.065155 94.264053 
L 231.408856 94.264053 
L 231.408856 94.094307 
L 231.600996 94.094307 
L 231.636433 93.754815 
L 231.927828 93.754815 
L 231.981334 93.415322 
L 232.131851 93.415322 
L 232.131851 93.245576 
L 232.295452 93.245576 
L 232.295452 93.07583 
L 232.418575 93.07583 
L 232.418575 92.906084 
L 232.780954 92.906084 
L 232.823899 92.396845 
L 233.223392 92.396845 
L 233.322373 91.71786 
L 233.384385 91.71786 
L 233.421003 91.378368 
L 233.611932 91.378368 
L 233.611932 91.208622 
L 233.773196 91.208622 
L 233.779326 90.869129 
L 233.937401 90.869129 
L 233.937401 90.699383 
L 234.249847 90.699383 
L 234.249847 90.529637 
L 234.564873 90.529637 
L 234.672289 90.020398 
L 234.67901 90.020398 
L 234.75883 89.680906 
L 234.834379 89.680906 
L 234.834379 89.511159 
L 235.205215 89.511159 
L 235.31605 88.832175 
L 235.412467 88.832175 
L 235.481463 88.492682 
L 235.597849 88.492682 
L 235.597849 88.322936 
L 235.764485 88.322936 
L 235.845149 87.813697 
L 235.911993 87.813697 
L 235.96777 87.474205 
L 236.06141 87.474205 
L 236.091382 87.134712 
L 236.177263 87.134712 
L 236.202218 86.79522 
L 236.501399 86.79522 
L 236.517574 86.455727 
L 236.733527 86.455727 
L 236.733527 86.285981 
L 236.910365 86.285981 
L 236.910365 86.116235 
L 237.031438 86.116235 
L 237.124289 85.606996 
L 237.233064 85.606996 
L 237.336469 85.267504 
L 237.404332 85.267504 
L 237.504032 84.588519 
L 237.631076 84.588519 
L 237.695912 84.07928 
L 237.756855 84.07928 
L 237.783127 83.739788 
L 237.893963 83.739788 
L 237.920804 83.400296 
L 238.083682 83.400296 
L 238.083682 83.230549 
L 238.198173 83.230549 
L 238.244722 82.721311 
L 238.353709 82.721311 
L 238.401821 82.212072 
L 238.636731 82.212072 
L 238.636731 82.042326 
L 238.919718 82.042326 
L 238.919718 81.87258 
L 239.174896 81.87258 
L 239.251142 81.363341 
L 239.375036 81.363341 
L 239.375036 81.193595 
L 239.504707 81.193595 
L 239.605668 80.51461 
L 239.651138 80.51461 
L 239.651138 80.344864 
L 239.844379 80.344864 
L 239.861199 79.665879 
L 240.142191 79.665879 
L 240.179029 79.15664 
L 240.255329 79.15664 
L 240.328301 78.647402 
L 240.392015 78.647402 
L 240.50285 77.968417 
L 240.525261 77.968417 
L 240.611323 77.289432 
L 240.750747 77.289432 
L 240.80578 76.780193 
L 240.942888 76.780193 
L 240.997855 76.440701 
L 241.072824 76.440701 
L 241.12443 76.101208 
L 241.250139 76.101208 
L 241.360974 75.422223 
L 241.389587 75.422223 
L 241.490523 75.082731 
L 241.539236 75.082731 
L 241.609695 74.234 
L 241.68488 74.234 
L 241.768212 73.045776 
L 241.82665 73.045776 
L 241.82665 72.87603 
L 241.940171 72.87603 
L 242.041039 72.366791 
L 242.095495 72.366791 
L 242.133146 71.857553 
L 242.231672 71.857553 
L 242.330757 71.348314 
L 242.395243 71.348314 
L 242.426683 70.839076 
L 242.569709 70.839076 
L 242.642793 70.160091 
L 242.800934 70.160091 
L 242.818129 69.820598 
L 242.917367 69.820598 
L 242.917367 69.650852 
L 243.094964 69.650852 
L 243.126195 69.141613 
L 243.22818 69.141613 
L 243.336026 68.632375 
L 243.355023 68.632375 
L 243.355023 68.462629 
L 243.469574 68.462629 
L 243.576427 67.274405 
L 243.582043 67.274405 
L 243.676 64.728212 
L 243.899606 64.728212 
L 244.000731 64.218973 
L 244.047682 64.218973 
L 244.047682 64.049227 
L 244.174026 64.049227 
L 244.174026 63.879481 
L 244.409899 63.879481 
L 244.507603 63.200496 
L 244.52744 63.200496 
L 244.620452 62.691257 
L 244.650283 62.691257 
L 244.723831 62.012272 
L 244.954659 62.012272 
L 245.056533 61.67278 
L 245.083455 61.67278 
L 245.172078 60.993795 
L 245.227478 60.993795 
L 245.287529 60.31481 
L 245.34953 60.31481 
L 245.398365 59.975318 
L 245.495502 59.975318 
L 245.606337 59.466079 
L 245.616648 59.466079 
L 245.725951 58.617348 
L 245.824581 58.617348 
L 245.870573 58.277856 
L 246.03031 58.277856 
L 246.123772 57.598871 
L 246.187472 57.598871 
L 246.255815 57.089632 
L 246.31079 57.089632 
L 246.415539 56.580393 
L 246.508551 56.580393 
L 246.508551 56.410647 
L 246.634091 56.410647 
L 246.74511 55.561916 
L 246.798864 55.561916 
L 246.865048 55.052677 
L 246.981591 55.052677 
L 247.075867 54.373693 
L 247.178811 54.373693 
L 247.225195 54.0342 
L 247.443375 54.0342 
L 247.443375 53.864454 
L 247.577802 53.864454 
L 247.682871 53.524961 
L 247.700862 53.524961 
L 247.800911 52.67623 
L 247.904316 52.67623 
L 248.002498 51.657753 
L 248.09551 51.657753 
L 248.09551 51.488007 
L 248.314127 51.488007 
L 248.387675 50.809022 
L 248.447289 50.809022 
L 248.555193 50.130037 
L 248.582971 50.130037 
L 248.655262 49.790545 
L 248.738017 49.790545 
L 248.738017 49.620798 
L 248.865753 49.620798 
L 248.865753 49.451052 
L 249.072242 49.451052 
L 249.159982 48.772067 
L 249.267571 48.772067 
L 249.378406 48.262829 
L 249.386854 48.262829 
L 249.396794 47.923336 
L 249.542833 47.923336 
L 249.588386 47.583844 
L 249.681148 47.583844 
L 249.777132 47.074605 
L 249.846271 47.074605 
L 249.884054 46.565367 
L 250.059641 46.565367 
L 250.059641 46.39562 
L 250.245763 46.39562 
L 250.353394 45.377143 
L 250.443374 45.377143 
L 250.535883 45.037651 
L 250.746876 45.037651 
L 250.851867 43.679681 
L 250.918432 43.679681 
L 250.982502 42.83095 
L 251.051165 42.83095 
L 251.15336 42.321711 
L 251.334188 42.321711 
L 251.334188 42.151965 
L 251.58604 42.151965 
L 251.69466 41.47298 
L 251.781524 41.47298 
L 251.781524 41.303234 
L 251.926213 41.303234 
L 251.980579 40.963741 
L 252.107507 40.963741 
L 252.201783 40.624249 
L 252.287212 40.624249 
L 252.287212 40.454503 
L 252.423981 40.454503 
L 252.500446 39.775518 
L 252.5473 39.775518 
L 252.637553 39.266279 
L 252.665698 39.266279 
L 252.665698 39.096533 
L 252.831345 39.096533 
L 252.870601 38.587294 
L 253.017891 38.587294 
L 253.127343 38.078056 
L 253.141563 38.078056 
L 253.250229 37.399071 
L 253.319168 37.399071 
L 253.319168 37.229325 
L 253.453631 37.229325 
L 253.489816 36.889832 
L 253.662811 36.889832 
L 253.662811 36.720086 
L 253.800034 36.720086 
L 253.814312 36.210847 
L 253.922519 36.210847 
L 254.010941 35.531862 
L 254.086184 35.531862 
L 254.086184 35.362116 
L 254.45756 35.362116 
L 254.5567 35.022624 
L 254.700356 35.022624 
L 254.726158 34.683131 
L 254.933425 34.683131 
L 255.00918 34.343639 
L 255.207506 34.343639 
L 255.291678 33.8344 
L 255.363887 33.8344 
L 255.401271 33.325162 
L 255.917377 33.325162 
L 256.022358 32.985669 
L 256.104565 32.985669 
L 256.160773 32.646177 
L 256.344949 32.646177 
L 256.344949 32.476431 
L 256.599372 32.476431 
L 256.599372 32.306684 
L 256.755319 32.306684 
L 256.755319 32.136938 
L 257.04694 32.136938 
L 257.147306 31.627699 
L 257.201938 31.627699 
L 257.307882 31.288207 
L 257.553334 31.288207 
L 257.649385 30.609222 
L 257.869939 30.609222 
L 257.869939 30.439476 
L 258.145649 30.439476 
L 258.211805 29.930237 
L 258.338827 29.930237 
L 258.372018 29.590745 
L 258.538256 29.590745 
L 258.622379 28.91176 
L 258.65504 28.91176 
L 258.738685 28.402521 
L 258.767022 28.402521 
L 258.767022 28.232775 
L 259.213299 28.232775 
L 259.213299 28.063029 
L 260.141955 28.063029 
L 260.141955 27.893283 
L 260.349928 27.893283 
L 260.356021 27.384044 
L 260.664492 27.384044 
L 260.664492 27.214298 
L 260.960053 27.214298 
L 260.960053 26.874805 
L 261.347573 26.874805 
L 261.41956 26.535313 
L 261.655271 26.535313 
L 261.655271 26.365567 
L 261.782139 26.365567 
L 261.782139 26.195821 
L 262.205697 26.195821 
L 262.205697 26.026074 
L 262.446081 26.026074 
L 262.446081 25.856328 
L 262.593412 25.856328 
L 262.593412 25.516836 
L 262.920695 25.516836 
L 262.920695 23.649627 
L 263.251883 23.649627 
L 263.251883 23.479881 
L 263.439668 23.479881 
L 263.439668 23.310135 
L 264.121997 23.310135 
L 264.121997 23.140389 
L 265.079702 23.140389 
L 265.079702 22.970642 
L 265.641045 22.970642 
L 265.641045 22.800896 
L 266.19085 22.800896 
L 266.243087 22.121911 
L 266.45106 22.121911 
L 266.45106 21.952165 
L 266.729978 21.952165 
L 266.729978 21.782419 
L 266.977172 21.782419 
L 266.991027 21.442926 
L 268.822299 21.442926 
L 268.822299 21.27318 
L 269.40683 21.27318 
L 269.40683 21.103434 
L 269.752348 21.103434 
L 269.752348 20.933688 
L 270.079121 20.933688 
L 270.079121 20.763942 
L 270.223129 20.763942 
L 270.223129 20.594195 
L 271.090026 20.594195 
L 271.090026 20.424449 
L 272.50353 20.424449 
L 272.50353 20.254703 
L 273.467999 20.254703 
L 273.476805 19.915211 
L 274.17812 19.915211 
L 274.17812 19.745464 
L 276.512623 19.745464 
L 276.512623 19.405972 
L 278.457994 19.405972 
L 278.457994 18.896733 
L 279.375903 18.896733 
L 279.375903 18.557241 
L 279.577937 18.557241 
L 279.577937 18.387495 
L 281.797646 18.387495 
L 281.797646 18.217748 
L 282.16539 18.217748 
L 282.16539 17.029525 
L 282.886579 17.029525 
L 282.886579 16.859779 
L 285.435545 16.859779 
L 285.435545 16.180794 
L 286.235722 16.180794 
L 286.235722 16.011048 
L 286.405004 16.011048 
L 286.405004 15.841301 
L 288.512786 15.841301 
L 288.512786 15.671555 
L 288.683603 15.671555 
L 288.683603 15.501809 
L 291.883849 15.501809 
L 291.883849 15.332063 
L 293.422815 15.332063 
L 293.422815 14.99257 
L 294.738492 14.99257 
L 294.738492 14.822824 
L 295.532505 14.822824 
L 295.532505 14.483332 
L 297.702689 14.483332 
L 297.702689 13.974093 
L 299.958468 13.974093 
L 299.958468 13.804347 
L 301.410085 13.804347 
L 301.410085 13.464854 
L 303.327794 13.464854 
L 303.327794 13.295108 
L 304.320103 13.295108 
L 304.320103 13.125362 
L 304.68024 13.125362 
L 304.68024 12.785869 
L 308.040451 12.785869 
L 308.040451 12.616123 
L 310.337815 12.616123 
L 310.337815 12.446377 
L 312.235285 12.446377 
L 312.235285 12.276631 
L 312.66751 12.276631 
L 312.66751 12.106885 
L 312.97221 12.106885 
L 312.97221 11.937138 
L 313.707141 11.937138 
L 313.707141 11.767392 
L 314.69945 11.767392 
L 314.69945 11.597646 
L 315.01046 11.597646 
L 315.01046 11.4279 
L 315.604611 11.4279 
L 315.604611 11.258153 
L 315.947054 11.258153 
L 315.947054 11.088407 
L 316.596919 11.088407 
L 316.596919 10.918661 
L 316.947384 10.918661 
L 316.947384 10.748915 
L 317.761643 10.748915 
L 317.761643 10.579169 
L 318.379787 10.579169 
L 318.379787 10.409422 
L 319.372095 10.409422 
L 319.372095 10.239676 
L 321.130969 10.239676 
L 321.130969 10.06993 
L 322.123278 10.06993 
L 322.123278 9.900184 
L 326.620775 9.900184 
L 326.620775 9.730437 
L 327.146694 9.730437 
L 327.146694 9.560691 
L 327.882751 9.560691 
L 327.882751 9.221199 
L 328.541222 9.221199 
L 328.541222 9.051453 
L 330.857595 9.051453 
L 330.857595 8.71196 
L 331.516066 8.71196 
L 331.516066 8.542214 
L 336.142229 8.542214 
L 336.142229 8.372468 
L 337.000122 8.372468 
L 337.000122 8.202722 
L 337.168548 8.202722 
L 337.168548 8.032975 
L 337.526041 8.032975 
L 337.526041 7.863229 
L 338.897592 7.863229 
L 338.897592 7.693483 
L 339.423511 7.693483 
L 339.423511 7.523737 
L 341.672768 7.523737 
L 341.672768 7.35399 
L 342.198687 7.35399 
L 342.198687 7.184244 
L 344.42395 7.184244 
L 344.42395 7.014498 
L 344.949869 7.014498 
L 344.949869 6.844752 
L 351.05277 6.844752 
L 351.05277 6.505259 
L 351.711241 6.505259 
L 351.711241 6.335513 
L 352.079089 6.335513 
L 352.079089 5.996021 
L 352.73756 5.996021 
L 352.73756 5.826275 
L 453.192 5.826275 
L 453.192 5.826275 
" clip-path="url(#p0e3c2578ca)" style="fill: none; stroke: #000000; stroke-width: 3; stroke-linecap: square"/>
   </g>
   <g id="line2d_18">
    <path clip-path="url(#p0e3c2578ca)" style="fill: none; stroke: #000000; stroke-width: 3; stroke-linecap: square"/>
   </g>
   <g id="line2d_19">
    <path d="M 34.16 26.564138 
L 234.245121 26.564138 
L 234.245121 26.366634 
L 235.68873 26.366634 
L 235.68873 26.169131 
L 236.742045 26.169131 
L 236.742045 25.971627 
L 237.271576 25.971627 
L 237.271576 25.774124 
L 237.445865 25.774124 
L 237.515276 25.379117 
L 237.893963 25.379117 
L 237.893963 25.181614 
L 238.132284 25.181614 
L 238.132284 24.98411 
L 238.435721 24.98411 
L 238.435721 24.786607 
L 238.636186 24.786607 
L 238.636186 24.589103 
L 238.769029 24.589103 
L 238.769029 24.3916 
L 239.261607 24.3916 
L 239.261607 24.194096 
L 239.488519 24.194096 
L 239.488519 23.996593 
L 239.721119 23.996593 
L 239.721119 23.799089 
L 240.579698 23.799089 
L 240.579698 23.601586 
L 240.750747 23.601586 
L 240.750747 23.404082 
L 241.164728 23.404082 
L 241.164728 23.206579 
L 242.017087 23.206579 
L 242.023307 22.811572 
L 242.218043 22.811572 
L 242.218043 22.614069 
L 242.362041 22.614069 
L 242.362041 22.416565 
L 242.747574 22.416565 
L 242.747574 22.219062 
L 242.914419 22.219062 
L 242.991274 21.626551 
L 243.076622 21.626551 
L 243.076622 21.429048 
L 243.288766 21.429048 
L 243.369961 20.836537 
L 243.606153 20.836537 
L 243.608282 20.441531 
L 243.780442 20.441531 
L 243.849853 20.046524 
L 243.91172 20.046524 
L 243.91172 19.84902 
L 244.112184 19.84902 
L 244.203087 19.454013 
L 244.227364 19.454013 
L 244.245028 18.861503 
L 244.466861 18.861503 
L 244.466861 18.663999 
L 244.732375 18.663999 
L 244.770298 18.071489 
L 244.964518 18.071489 
L 245.049991 17.478979 
L 245.103606 17.478979 
L 245.151929 17.083972 
L 245.493283 17.083972 
L 245.596184 16.491461 
L 245.670974 16.491461 
L 245.670974 16.293958 
L 245.78569 16.293958 
L 245.823097 15.898951 
L 245.958453 15.898951 
L 245.958453 15.701448 
L 246.226745 15.701448 
L 246.315221 15.108937 
L 246.48951 15.108937 
L 246.558921 14.71393 
L 246.724288 14.71393 
L 246.724288 14.516427 
L 246.937608 14.516427 
L 246.937608 14.318923 
L 247.085324 14.318923 
L 247.175929 13.923916 
L 247.253819 13.923916 
L 247.253819 13.726413 
L 247.428109 13.726413 
L 247.497519 12.936399 
L 247.679831 12.936399 
L 247.679831 12.738896 
L 247.812674 12.738896 
L 247.876206 12.343889 
L 248.114527 12.343889 
L 248.114527 12.146385 
L 248.305252 12.146385 
L 248.351665 11.751378 
L 248.417965 11.751378 
L 248.417965 11.553875 
L 248.532164 11.553875 
L 248.618429 10.961364 
L 248.751273 10.961364 
L 248.751273 10.763861 
L 249.24385 10.763861 
L 249.24385 10.566358 
L 249.470763 10.566358 
L 249.470763 10.368854 
L 249.794392 10.368854 
L 249.877668 9.973847 
L 250.1517 9.973847 
L 250.225969 9.57884 
L 250.73299 9.57884 
L 250.73299 9.381337 
L 251.030079 9.381337 
L 251.060733 8.98633 
L 251.999331 8.98633 
L 252.020921 8.591323 
L 256.027975 8.591323 
L 256.027975 8.393819 
L 326.393691 8.393819 
L 326.393691 8.196316 
L 343.539473 8.196316 
L 343.539473 7.998813 
L 344.108738 7.998813 
L 344.108738 7.801309 
L 378.442728 7.801309 
L 378.442728 7.603806 
L 395.717258 7.603806 
L 395.717258 7.406302 
L 421.926348 7.406302 
L 421.926348 7.208799 
L 437.489359 7.208799 
L 437.489359 7.011295 
L 453.192 7.011295 
L 453.192 7.011295 
" clip-path="url(#p0e3c2578ca)" style="fill: none; stroke: #00bfbf; stroke-width: 3; stroke-linecap: square"/>
   </g>
   <g id="line2d_20">
    <path clip-path="url(#p0e3c2578ca)" style="fill: none; stroke: #00bfbf; stroke-width: 3; stroke-linecap: square"/>
   </g>
   <g id="line2d_21">
    <path d="M 34.381284 5.826275 
L 34.16 5.826275 
L 453.192 5.826275 
L 461.8 5.826275 
" clip-path="url(#p0e3c2578ca)" style="fill: none; stroke: #bf00bf; stroke-width: 3; stroke-linecap: square"/>
   </g>
   <g id="line2d_22">
    <path d="M 34.381284 5.826275 
L 34.16 5.826275 
L 453.192 5.826275 
L 461.8 5.826275 
" clip-path="url(#p0e3c2578ca)" style="fill: none; stroke: #ff0000; stroke-width: 3; stroke-linecap: square"/>
   </g>
   <g id="line2d_23">
    <path d="M 243.676 291.28 
L 243.676 3 
" clip-path="url(#p0e3c2578ca)" style="fill: none; stroke: #000000; stroke-width: 1.5; stroke-linecap: square"/>
   </g>
   <g id="line2d_24">
    <path d="M 34.16 147.14 
L 453.192 147.14 
" clip-path="url(#p0e3c2578ca)" style="fill: none; stroke-dasharray: 2,3.3; stroke-dashoffset: 0; stroke: #000000; stroke-width: 2"/>
   </g>
   <g id="patch_3">
    <path d="M 34.16 291.28 
L 34.16 3 
" style="fill: none; stroke: #000000; stroke-width: 0.8; stroke-linejoin: miter; stroke-linecap: square"/>
   </g>
   <g id="patch_4">
    <path d="M 453.192 291.28 
L 453.192 3 
" style="fill: none; stroke: #000000; stroke-width: 0.8; stroke-linejoin: miter; stroke-linecap: square"/>
   </g>
   <g id="patch_5">
    <path d="M 34.16 291.28 
L 453.192 291.28 
" style="fill: none; stroke: #000000; stroke-width: 0.8; stroke-linejoin: miter; stroke-linecap: square"/>
   </g>
   <g id="patch_6">
    <path d="M 34.16 3 
L 453.192 3 
" style="fill: none; stroke: #000000; stroke-width: 0.8; stroke-linejoin: miter; stroke-linecap: square"/>
   </g>
   <g id="text_6">
    <!-- f1-f24,20-D -->
    <g transform="translate(330.91761 285.5144) scale(0.2 -0.2)">
     <defs>
      <path id="DejaVuSans-34" d="M 2419 4116 
L 825 1625 
L 2419 1625 
L 2419 4116 
z
M 2253 4666 
L 3047 4666 
L 3047 1625 
L 3713 1625 
L 3713 1100 
L 3047 1100 
L 3047 0 
L 2419 0 
L 2419 1100 
L 313 1100 
L 313 1709 
L 2253 4666 
z
" transform="scale(0.015625)"/>
      <path id="DejaVuSans-2c" d="M 750 794 
L 1409 794 
L 1409 256 
L 897 -744 
L 494 -744 
L 750 256 
L 750 794 
z
" transform="scale(0.015625)"/>
      <path id="DejaVuSans-44" d="M 1259 4147 
L 1259 519 
L 2022 519 
Q 2988 519 3436 956 
Q 3884 1394 3884 2338 
Q 3884 3275 3436 3711 
Q 2988 4147 2022 4147 
L 1259 4147 
z
M 628 4666 
L 1925 4666 
Q 3281 4666 3915 4102 
Q 4550 3538 4550 2338 
Q 4550 1131 3912 565 
Q 3275 0 1925 0 
L 628 0 
L 628 4666 
z
" transform="scale(0.015625)"/>
     </defs>
     <use xlink:href="#DejaVuSans-66"/>
     <use xlink:href="#DejaVuSans-31" transform="translate(35.205078 0)"/>
     <use xlink:href="#DejaVuSans-2d" transform="translate(98.828125 0)"/>
     <use xlink:href="#DejaVuSans-66" transform="translate(134.912109 0)"/>
     <use xlink:href="#DejaVuSans-32" transform="translate(170.117188 0)"/>
     <use xlink:href="#DejaVuSans-34" transform="translate(233.740234 0)"/>
     <use xlink:href="#DejaVuSans-2c" transform="translate(297.363281 0)"/>
     <use xlink:href="#DejaVuSans-32" transform="translate(329.150391 0)"/>
     <use xlink:href="#DejaVuSans-30" transform="translate(392.773438 0)"/>
     <use xlink:href="#DejaVuSans-2d" transform="translate(456.396484 0)"/>
     <use xlink:href="#DejaVuSans-44" transform="translate(492.480469 0)"/>
    </g>
   </g>
   <g id="text_7">
    <!-- v2.8.2 -->
    <g style="fill: #808080" transform="translate(231.131 286.73345) scale(0.08 -0.08)">
     <defs>
      <path id="DejaVuSans-2e" d="M 684 794 
L 1344 794 
L 1344 0 
L 684 0 
L 684 794 
z
" transform="scale(0.015625)"/>
      <path id="DejaVuSans-38" d="M 2034 2216 
Q 1584 2216 1326 1975 
Q 1069 1734 1069 1313 
Q 1069 891 1326 650 
Q 1584 409 2034 409 
Q 2484 409 2743 651 
Q 3003 894 3003 1313 
Q 3003 1734 2745 1975 
Q 2488 2216 2034 2216 
z
M 1403 2484 
Q 997 2584 770 2862 
Q 544 3141 544 3541 
Q 544 4100 942 4425 
Q 1341 4750 2034 4750 
Q 2731 4750 3128 4425 
Q 3525 4100 3525 3541 
Q 3525 3141 3298 2862 
Q 3072 2584 2669 2484 
Q 3125 2378 3379 2068 
Q 3634 1759 3634 1313 
Q 3634 634 3220 271 
Q 2806 -91 2034 -91 
Q 1263 -91 848 271 
Q 434 634 434 1313 
Q 434 1759 690 2068 
Q 947 2378 1403 2484 
z
M 1172 3481 
Q 1172 3119 1398 2916 
Q 1625 2713 2034 2713 
Q 2441 2713 2670 2916 
Q 2900 3119 2900 3481 
Q 2900 3844 2670 4047 
Q 2441 4250 2034 4250 
Q 1625 4250 1398 4047 
Q 1172 3844 1172 3481 
z
" transform="scale(0.015625)"/>
     </defs>
     <use xlink:href="#DejaVuSans-76"/>
     <use xlink:href="#DejaVuSans-32" transform="translate(59.179688 0)"/>
     <use xlink:href="#DejaVuSans-2e" transform="translate(122.802734 0)"/>
     <use xlink:href="#DejaVuSans-38" transform="translate(154.589844 0)"/>
     <use xlink:href="#DejaVuSans-2e" transform="translate(218.212891 0)"/>
     <use xlink:href="#DejaVuSans-32" transform="translate(250 0)"/>
    </g>
   </g>
   <g id="legend_1">
    <g id="patch_7">
     <path d="M 48.16 281.28 
L 195.61625 281.28 
Q 199.61625 281.28 199.61625 277.28 
L 199.61625 161.855 
Q 199.61625 157.855 195.61625 157.855 
L 48.16 157.855 
Q 44.16 157.855 44.16 161.855 
L 44.16 277.28 
Q 44.16 281.28 48.16 281.28 
z
" style="fill: #ffffff; opacity: 0.2; stroke: #cccccc; stroke-linejoin: miter"/>
    </g>
    <g id="line2d_25">
     <path d="M 52.16 174.051875 
L 72.16 174.051875 
L 92.16 174.051875 
" style="fill: none; stroke: #000000; stroke-width: 3; stroke-linecap: square"/>
    </g>
    <g id="text_8">
     <!-- 1: 23/11 -->
     <g transform="translate(108.16 181.051875) scale(0.2 -0.2)">
      <defs>
       <path id="DejaVuSans-3a" d="M 750 794 
L 1409 794 
L 1409 0 
L 750 0 
L 750 794 
z
M 750 3309 
L 1409 3309 
L 1409 2516 
L 750 2516 
L 750 3309 
z
" transform="scale(0.015625)"/>
       <path id="DejaVuSans-33" d="M 2597 2516 
Q 3050 2419 3304 2112 
Q 3559 1806 3559 1356 
Q 3559 666 3084 287 
Q 2609 -91 1734 -91 
Q 1441 -91 1130 -33 
Q 819 25 488 141 
L 488 750 
Q 750 597 1062 519 
Q 1375 441 1716 441 
Q 2309 441 2620 675 
Q 2931 909 2931 1356 
Q 2931 1769 2642 2001 
Q 2353 2234 1838 2234 
L 1294 2234 
L 1294 2753 
L 1863 2753 
Q 2328 2753 2575 2939 
Q 2822 3125 2822 3475 
Q 2822 3834 2567 4026 
Q 2313 4219 1838 4219 
Q 1578 4219 1281 4162 
Q 984 4106 628 3988 
L 628 4550 
Q 988 4650 1302 4700 
Q 1616 4750 1894 4750 
Q 2613 4750 3031 4423 
Q 3450 4097 3450 3541 
Q 3450 3153 3228 2886 
Q 3006 2619 2597 2516 
z
" transform="scale(0.015625)"/>
       <path id="DejaVuSans-2f" d="M 1625 4666 
L 2156 4666 
L 531 -594 
L 0 -594 
L 1625 4666 
z
" transform="scale(0.015625)"/>
      </defs>
      <use xlink:href="#DejaVuSans-31"/>
      <use xlink:href="#DejaVuSans-3a" transform="translate(63.623047 0)"/>
      <use xlink:href="#DejaVuSans-20" transform="translate(97.314453 0)"/>
      <use xlink:href="#DejaVuSans-32" transform="translate(129.101562 0)"/>
      <use xlink:href="#DejaVuSans-33" transform="translate(192.724609 0)"/>
      <use xlink:href="#DejaVuSans-2f" transform="translate(256.347656 0)"/>
      <use xlink:href="#DejaVuSans-31" transform="translate(290.039062 0)"/>
      <use xlink:href="#DejaVuSans-31" transform="translate(353.662109 0)"/>
     </g>
    </g>
    <g id="line2d_26">
     <path d="M 52.16 203.408125 
L 72.16 203.408125 
L 92.16 203.408125 
" style="fill: none; stroke: #00bfbf; stroke-width: 3; stroke-linecap: square"/>
    </g>
    <g id="text_9">
     <!-- -1: 20/3 -->
     <g transform="translate(108.16 210.408125) scale(0.2 -0.2)">
      <use xlink:href="#DejaVuSans-2d"/>
      <use xlink:href="#DejaVuSans-31" transform="translate(36.083984 0)"/>
      <use xlink:href="#DejaVuSans-3a" transform="translate(99.707031 0)"/>
      <use xlink:href="#DejaVuSans-20" transform="translate(133.398438 0)"/>
      <use xlink:href="#DejaVuSans-32" transform="translate(165.185547 0)"/>
      <use xlink:href="#DejaVuSans-30" transform="translate(228.808594 0)"/>
      <use xlink:href="#DejaVuSans-2f" transform="translate(292.431641 0)"/>
      <use xlink:href="#DejaVuSans-33" transform="translate(326.123047 0)"/>
     </g>
    </g>
    <g id="line2d_27">
     <path d="M 52.16 232.764375 
L 72.16 232.764375 
L 92.16 232.764375 
" style="fill: none; stroke: #bf00bf; stroke-width: 3; stroke-linecap: square"/>
    </g>
    <g id="text_10">
     <!-- -4: 19/0 -->
     <g transform="translate(108.16 239.764375) scale(0.2 -0.2)">
      <defs>
       <path id="DejaVuSans-39" d="M 703 97 
L 703 672 
Q 941 559 1184 500 
Q 1428 441 1663 441 
Q 2288 441 2617 861 
Q 2947 1281 2994 2138 
Q 2813 1869 2534 1725 
Q 2256 1581 1919 1581 
Q 1219 1581 811 2004 
Q 403 2428 403 3163 
Q 403 3881 828 4315 
Q 1253 4750 1959 4750 
Q 2769 4750 3195 4129 
Q 3622 3509 3622 2328 
Q 3622 1225 3098 567 
Q 2575 -91 1691 -91 
Q 1453 -91 1209 -44 
Q 966 3 703 97 
z
M 1959 2075 
Q 2384 2075 2632 2365 
Q 2881 2656 2881 3163 
Q 2881 3666 2632 3958 
Q 2384 4250 1959 4250 
Q 1534 4250 1286 3958 
Q 1038 3666 1038 3163 
Q 1038 2656 1286 2365 
Q 1534 2075 1959 2075 
z
" transform="scale(0.015625)"/>
      </defs>
      <use xlink:href="#DejaVuSans-2d"/>
      <use xlink:href="#DejaVuSans-34" transform="translate(36.083984 0)"/>
      <use xlink:href="#DejaVuSans-3a" transform="translate(99.707031 0)"/>
      <use xlink:href="#DejaVuSans-20" transform="translate(133.398438 0)"/>
      <use xlink:href="#DejaVuSans-31" transform="translate(165.185547 0)"/>
      <use xlink:href="#DejaVuSans-39" transform="translate(228.808594 0)"/>
      <use xlink:href="#DejaVuSans-2f" transform="translate(292.431641 0)"/>
      <use xlink:href="#DejaVuSans-30" transform="translate(326.123047 0)"/>
     </g>
    </g>
    <g id="line2d_28">
     <path d="M 52.16 262.120625 
L 72.16 262.120625 
L 92.16 262.120625 
" style="fill: none; stroke: #ff0000; stroke-width: 3; stroke-linecap: square"/>
    </g>
    <g id="text_11">
     <!-- -8: 19/0 -->
     <g transform="translate(108.16 269.120625) scale(0.2 -0.2)">
      <use xlink:href="#DejaVuSans-2d"/>
      <use xlink:href="#DejaVuSans-38" transform="translate(36.083984 0)"/>
      <use xlink:href="#DejaVuSans-3a" transform="translate(99.707031 0)"/>
      <use xlink:href="#DejaVuSans-20" transform="translate(133.398438 0)"/>
      <use xlink:href="#DejaVuSans-31" transform="translate(165.185547 0)"/>
      <use xlink:href="#DejaVuSans-39" transform="translate(228.808594 0)"/>
      <use xlink:href="#DejaVuSans-2f" transform="translate(292.431641 0)"/>
      <use xlink:href="#DejaVuSans-30" transform="translate(326.123047 0)"/>
     </g>
    </g>
   </g>
  </g>
 </g>
 <defs>
  <clipPath id="p0e3c2578ca">
   <rect x="34.16" y="3" width="419.032" height="288.28"/>
  </clipPath>
 </defs>
</svg>
